<svg xmlns="http://www.w3.org/2000/svg" viewBox="0 0 512 512">
  <defs>
    <linearGradient id="bg" x1="64" y1="64" x2="448" y2="448" gradientUnits="userSpaceOnUse">
      <stop offset="0" stop-color="#246BFF"/>
      <stop offset="1" stop-color="#21A7FF"/>
    </linearGradient>
  </defs>

  <rect x="36" y="36" width="440" height="440" rx="104" fill="url(#bg)"/>

  <g fill="#FFFFFF">
    <rect x="118" y="188" width="276" height="34" rx="17"/>
    <path d="M164 188v-16c0-51 41-92 92-92s92 41 92 92v16h-34v-16c0-32-26-58-58-58s-58 26-58 58v16h-34z"/>
    <path d="M132 238h248l-22 170c-3 25-24 44-49 44H203c-25 0-46-19-49-44l-22-170z"/>
  </g>

  <g fill="#FFFFFF" opacity="0.92">
    <rect x="72" y="270" width="84" height="22" rx="11"/>
    <rect x="86" y="314" width="74" height="22" rx="11"/>
    <rect x="68" y="358" width="96" height="22" rx="11"/>
  </g>

  <path fill="#246BFF" d="M270 262l-48 82h44l-18 84 86-112h-50l24-54h-38z"/>
</svg>
